<svg id="bcked-logo" xmlns="http://www.w3.org/2000/svg" viewBox="0 0 127.8 127.53">
  <g id="mark2">
    <path d="M108.73,43.61c-3.44-.26-6.53.72-10-.2A20.29,20.29,0,0,1,83.81,25c-.2-3.42.76-6.54-.15-9.93A20.28,20.28,0,0,0,43.8,20.35a20.3,20.3,0,0,0,7.83,15.71,21.21,21.21,0,0,0,8.09,4c3.28.8,6.25,0,9.52.09,4.75.08,9.64,2.74,12.88,6.1a20,20,0,0,1,3.95,5.84c2.3,5.15,2.57,13.87,1.33,19.36a20.8,20.8,0,0,1-3.6,8,20.39,20.39,0,0,1-15,8.12c-5.75.33-12,0-16.87,3.52a20.18,20.18,0,1,0,27.92,28.57,21.22,21.22,0,0,0,4-8.15,19.49,19.49,0,0,0,.54-4.57c0-3.21-.68-6.21.32-9.36a19.41,19.41,0,0,1,4-7,21,21,0,0,1,14.19-7c3.35-.19,6.26.78,9.62-.06A20.26,20.26,0,0,0,127.8,63.8C127.8,53.15,118.92,44.39,108.73,43.61Z" fill="#ff3b77"/>
  </g>
  <g id="mark1">
    <path d="M64.93,43.53c-3.44-.26-6.53.73-10-.19A20.29,20.29,0,0,1,40,25c-.2-3.42.76-6.55-.14-9.94A20.28,20.28,0,0,0,0,20.28,20.31,20.31,0,0,0,7.83,36a21.11,21.11,0,0,0,8.09,4c3.28.8,6.25,0,9.52.1,4.75.07,9.64,2.74,12.89,6.09a20.54,20.54,0,0,1,4,5.84c2.88,6.47,2.84,17.65-.29,24.08A20.42,20.42,0,0,1,25,87.44c-5.75.34-12,0-16.87,3.53a20.28,20.28,0,0,0,12.19,36.48A20.32,20.32,0,0,0,36,119.54a21.22,21.22,0,0,0,4-8.15,19.56,19.56,0,0,0,.54-4.57c0-3.22-.68-6.21.32-9.36a19.45,19.45,0,0,1,4-7,21,21,0,0,1,14.19-7c3.35-.2,6.27.78,9.62-.06A20.29,20.29,0,0,0,84,63.73C84,53.07,75.12,44.31,64.93,43.53Z" fill="#52656b"/>
  </g>
</svg>
