<svg id="bcked-logo" xmlns="http://www.w3.org/2000/svg" viewBox="0 0 477.52 127.11">
  <g id="text">
    <path d="M182.21,20.28l-5,35q7.94-6.86,15.74-6.86a19.35,19.35,0,0,1,15.41,7.41q6.21,7.41,6.21,18.62a32.66,32.66,0,0,1-9.93,24.19q-9.94,9.81-27.44,9.81a145.38,145.38,0,0,1-24.5-1.87l12.19-86.33Zm-7,49.12-3.51,24.68a47.85,47.85,0,0,0,5.81.37q19,0,19-19.24c0-3.9-.9-7-2.69-9.29a8.7,8.7,0,0,0-7.21-3.44Q180.82,62.48,175.24,69.4Z" transform="translate(0 -0.27)" fill="#52656B"/>
    <path d="M275.92,50.51,273.73,66q-4.56-1.62-6.41-2.09a28.18,28.18,0,0,0-6.15-.47,21.68,21.68,0,0,0-14.69,5.14,16,16,0,0,0-5.94,12.59q0,6.28,4,9.77t11.16,3.48q7,0,16.5-3.8l-2.07,15.71a75.77,75.77,0,0,1-17.87,2.12q-13.06,0-21.31-7.82t-8.25-20.08q0-13.58,10.75-22.85t26.5-9.28A56.09,56.09,0,0,1,275.92,50.51Z" transform="translate(0 -0.27)" fill="#52656B"/>
    <path d="M311.46,20.28l-7.58,53.89,21-24.78h21.3L323.18,77l22.36,30.41h-21l-21.3-28.54-4,28.54H281.92l12.31-87.08Z" transform="translate(0 -0.27)" fill="#52656B"/>
    <path d="M402,80.87H364q-.63,6.82,3.12,10.86t10.19,4q7.13,0,21.5-5.92l-3.06,14.46q-11.31,4.19-20.19,4.18-13.19,0-21.06-7.66T346.6,80.33a31,31,0,0,1,9.19-22.57A30.14,30.14,0,0,1,378,48.45q11.31,0,18.1,6.7t6.78,17.67A37.11,37.11,0,0,1,402,80.87Zm-36.31-10H386a12.56,12.56,0,0,0,.19-2.12,8,8,0,0,0-8.5-8.47Q369.36,60.3,365.67,70.89Z" transform="translate(0 -0.27)" fill="#52656B"/>
    <path d="M477.52,20.28l-12.11,86.34a122,122,0,0,1-20,1.86q-15.45,0-24.56-7.54t-9.1-20.23a30.56,30.56,0,0,1,9.77-22.82q9.76-9.44,26.25-9.44,2.69,0,8.43.63l4.05-28.8ZM449.85,93.83l4.24-30a31.46,31.46,0,0,0-4.37-.32q-9.24,0-14.68,5a16.15,16.15,0,0,0-5.44,12.35,12.59,12.59,0,0,0,4.16,10q4.15,3.68,11.34,3.67A22.88,22.88,0,0,0,449.85,93.83Z" transform="translate(0 -0.27)" fill="#52656B"/>
  </g>
  <g id="mark2">
    <path d="M108.73,43.69c-3.44-.26-6.53.72-10-.2a20.26,20.26,0,0,1-15-18.33c-.2-3.4.76-6.52-.15-9.91A20.28,20.28,0,0,0,43.8,20.5a20.26,20.26,0,0,0,7.83,15.67,21.17,21.17,0,0,0,8.09,4c3.28.79,6.25,0,9.52.09C74,40.3,78.88,43,82.12,46.3a20,20,0,0,1,3.95,5.82c2.3,5.14,2.57,13.84,1.33,19.32a20.78,20.78,0,0,1-3.6,8,20.42,20.42,0,0,1-15,8.09c-5.75.34-12,0-16.87,3.52a20.15,20.15,0,1,0,27.92,28.49,21.21,21.21,0,0,0,4-8.13,19.41,19.41,0,0,0,.54-4.56c0-3.2-.68-6.19.32-9.33a19.37,19.37,0,0,1,4-7,21,21,0,0,1,14.19-7c3.35-.2,6.26.77,9.62-.07A20.23,20.23,0,0,0,127.8,63.83C127.8,53.2,118.92,44.46,108.73,43.69Z" transform="translate(0 -0.27)" fill="#FF3B76"/>
  </g>
  <g id="mark1">
    <path d="M64.93,43.69c-3.44-.26-6.53.72-10-.2A20.26,20.26,0,0,1,40,25.16c-.2-3.4.76-6.52-.14-9.91A20.29,20.29,0,0,0,0,20.5,20.26,20.26,0,0,0,7.83,36.17a21.24,21.24,0,0,0,8.09,4c3.28.79,6.25,0,9.52.09,4.75.08,9.64,2.74,12.89,6.08a20.44,20.44,0,0,1,4,5.82c2.88,6.45,2.84,17.6-.29,24A20.43,20.43,0,0,1,25,87.48c-5.75.34-12,0-16.87,3.52a20.21,20.21,0,0,0,12.19,36.38A20.33,20.33,0,0,0,36,119.49a21.07,21.07,0,0,0,4-8.13,19.41,19.41,0,0,0,.54-4.56c0-3.2-.68-6.19.32-9.33a19.37,19.37,0,0,1,4-7,21,21,0,0,1,14.19-7c3.35-.2,6.27.77,9.62-.07a20.08,20.08,0,0,0,8-4A20.34,20.34,0,0,0,84,63.83C84,53.2,75.12,44.46,64.93,43.69Z" transform="translate(0 -0.27)" fill="#52656B"/>
  </g>
</svg>
