<svg id="bckedSocialIcon" data-name="layer1" xmlns="http://www.w3.org/2000/svg" viewBox="0 0 160 160">
  <g id="circle">
    <circle cx="80" cy="80" r="80" fill="#52656b"/>
  </g>
  <g id="mark2">
    <path d="M133.43,60.25c-3.44-.26-6.53.72-10-.2a20.28,20.28,0,0,1-14.92-18.41c-.2-3.42.76-6.54-.15-9.93a20.24,20.24,0,1,0-32,21,21.25,21.25,0,0,0,8.09,4c3.28.8,6.25,0,9.52.09,4.75.08,9.64,2.74,12.88,6.1a19.94,19.94,0,0,1,4,5.84c2.3,5.15,2.57,13.87,1.33,19.36a20.63,20.63,0,0,1-3.6,8,20.36,20.36,0,0,1-15,8.12c-5.75.33-12,0-16.87,3.52a20.18,20.18,0,0,0,23.81,32.6,20.38,20.38,0,0,0,4.11-4,21.07,21.07,0,0,0,4-8.15,19.49,19.49,0,0,0,.54-4.57c0-3.21-.68-6.21.32-9.36a19.41,19.41,0,0,1,4-7,21.05,21.05,0,0,1,14.19-7c3.35-.19,6.26.78,9.62-.06A20.25,20.25,0,0,0,152.5,80.44C152.5,69.79,143.62,61,133.43,60.25Z" fill="#ff3b76"/>
  </g>
  <g id="mark1">
    <path d="M89.63,60.17c-3.44-.26-6.53.73-10-.19A20.29,20.29,0,0,1,64.7,41.64c-.2-3.42.76-6.55-.14-9.94A20.28,20.28,0,0,0,24.7,36.92a20.35,20.35,0,0,0,7.83,15.72,21.11,21.11,0,0,0,8.09,4c3.28.8,6.25,0,9.52.1,4.75.07,9.64,2.74,12.89,6.09a20.5,20.5,0,0,1,4,5.84c2.88,6.47,2.84,17.65-.29,24.08a20.4,20.4,0,0,1-17,11.33c-5.75.34-12,0-16.87,3.53A20.17,20.17,0,1,0,60.7,136.18a21.07,21.07,0,0,0,4-8.15,19.49,19.49,0,0,0,.54-4.57c0-3.22-.68-6.21.32-9.36a19.64,19.64,0,0,1,4-7,21.05,21.05,0,0,1,14.19-7c3.35-.2,6.27.78,9.62-.06A20.27,20.27,0,0,0,108.7,80.37C108.7,69.71,99.82,61,89.63,60.17Z" fill="#3bc7ff"/>
  </g>
</svg>
