<svg id="backed-logo" xmlns="http://www.w3.org/2000/svg" viewBox="0 0 548.15 127.45">
  <g id="text">
    <path d="M182.21,20.33l-5,35.13q7.94-6.87,15.74-6.88A19.34,19.34,0,0,1,208.39,56q6.21,7.44,6.21,18.67a32.8,32.8,0,0,1-9.93,24.26q-9.94,9.82-27.44,9.83a144.34,144.34,0,0,1-24.5-1.87l12.19-86.57Zm-7,49.25-3.51,24.75a47.93,47.93,0,0,0,5.81.38q19,0,19-19.3,0-5.85-2.69-9.31a8.69,8.69,0,0,0-7.21-3.45Q180.82,62.65,175.24,69.58Z" transform="translate(0 -0.27)" fill="#52656b"/>
    <path d="M284.86,50.52l-8.09,57.13H259.54l.75-5.38q-8.12,6.51-16.75,6.5a18.14,18.14,0,0,1-14.59-7q-5.79-7-5.78-17.92,0-15.61,10.9-25.44t31.23-9.84A97.13,97.13,0,0,1,284.86,50.52ZM261.92,90.77l3.87-27.62A37.37,37.37,0,0,0,262,63q-10.37,0-15.65,6.27a23.2,23.2,0,0,0-5.29,15.5c0,3.49.75,6.23,2.25,8.2a7.35,7.35,0,0,0,6.19,3Q255.8,95.9,261.92,90.77Z" transform="translate(0 -0.27)" fill="#52656b"/>
    <path d="M346.54,50.65l-2.19,15.56q-4.56-1.62-6.4-2.09a27.6,27.6,0,0,0-6.16-.47,21.65,21.65,0,0,0-14.69,5.14,16.1,16.1,0,0,0-5.93,12.63q0,6.3,4,9.8t11.15,3.49q7,0,16.5-3.81l-2.06,15.75a75.79,75.79,0,0,1-17.88,2.12q-13.05,0-21.31-7.83T293.29,80.8q0-13.6,10.75-22.91t26.5-9.31A55.62,55.62,0,0,1,346.54,50.65Z" transform="translate(0 -0.27)" fill="#52656b"/>
    <path d="M382.09,20.33l-7.59,54,21-24.85h21.29l-23,27.64,22.37,30.49h-21L373.85,79l-4,28.61h-17.3l12.31-87.32Z" transform="translate(0 -0.27)" fill="#52656b"/>
    <path d="M472.6,81.08h-38Q434,87.94,437.73,92t10.19,4q7.13,0,21.5-5.94l-3.07,14.5q-11.31,4.2-20.18,4.19-13.19,0-21.07-7.68t-7.87-20.54a31.05,31.05,0,0,1,9.19-22.63,30.07,30.07,0,0,1,22.25-9.34q11.31,0,18.09,6.72T473.54,73A36.51,36.51,0,0,1,472.6,81.08Zm-36.31-10H456.6a11.61,11.61,0,0,0,.19-2.12,8.41,8.41,0,0,0-2.31-6.16,8.3,8.3,0,0,0-6.19-2.34Q440,60.46,436.29,71.08Z" transform="translate(0 -0.27)" fill="#52656b"/>
    <path d="M548.15,20.33,536,106.9a120.86,120.86,0,0,1-20,1.87q-15.45,0-24.55-7.55t-9.11-20.29A30.71,30.71,0,0,1,492.12,58q9.78-9.45,26.25-9.46,2.68,0,8.43.63l4.05-28.88ZM520.48,94.08,524.72,64a31.53,31.53,0,0,0-4.37-.31q-9.26,0-14.69,5a16.19,16.19,0,0,0-5.43,12.38,12.62,12.62,0,0,0,4.16,10q4.16,3.68,11.34,3.68A23.08,23.08,0,0,0,520.48,94.08Z" transform="translate(0 -0.27)" fill="#52656b"/>
  </g>
  <g id="mark2">
    <path d="M64.07,4.27A16.28,16.28,0,0,1,79.8,16.33a14.27,14.27,0,0,1,.13,4.75,32.5,32.5,0,0,0-.12,4.39,24.27,24.27,0,0,0,17.92,22,16.45,16.45,0,0,0,4.39.54c1,0,2-.07,2.92-.13s1.64-.12,2.42-.12c.34,0,.66,0,1,0,8.48.64,15.38,7.91,15.38,16.2a16.29,16.29,0,0,1-12.31,15.79,8.06,8.06,0,0,1-2.06.23c-.76,0-1.58-.07-2.44-.14s-2-.18-3.2-.18c-.4,0-.8,0-1.18,0a24.86,24.86,0,0,0-17,8.37,23.57,23.57,0,0,0-4.83,8.41,21.18,21.18,0,0,0-.62,8.1c.05.86.1,1.68.11,2.48a15.46,15.46,0,0,1-.43,3.63,17.33,17.33,0,0,1-3.22,6.61A16.15,16.15,0,1,1,54.22,94.49c3.2-2.3,7.51-2.47,12.08-2.65L69,91.71A24.54,24.54,0,0,0,87,82a24.9,24.9,0,0,0,4.29-9.49c1.34-5.9,1.24-15.57-1.57-21.88a24.37,24.37,0,0,0-4.73-7c-4.28-4.42-10.3-7.22-15.7-7.31h-.4c-1.15,0-2.22.07-3.25.15s-1.77.13-2.58.13a10.23,10.23,0,0,1-2.41-.26,17.11,17.11,0,0,1-6.54-3.22A16.31,16.31,0,0,1,47.8,20.55,16.3,16.3,0,0,1,64.07,4.27m0-4A20.28,20.28,0,0,0,43.8,20.55a20.31,20.31,0,0,0,7.83,15.71,21.21,21.21,0,0,0,8.09,4,13.87,13.87,0,0,0,3.35.37c1.93,0,3.83-.28,5.83-.28h.34c4.75.08,9.64,2.74,12.88,6.09a20.27,20.27,0,0,1,3.95,5.84c2.3,5.15,2.57,13.88,1.33,19.37a20.8,20.8,0,0,1-3.6,8,20.39,20.39,0,0,1-15,8.12c-5.75.33-12,0-16.87,3.52a20.18,20.18,0,1,0,27.92,28.57,21.22,21.22,0,0,0,4-8.15,19.49,19.49,0,0,0,.54-4.57c0-3.21-.68-6.21.32-9.36a19.33,19.33,0,0,1,4-7,21,21,0,0,1,14.19-7l1,0c1.94,0,3.76.32,5.64.32a12.32,12.32,0,0,0,3-.35,20.19,20.19,0,0,0,8-4A20.4,20.4,0,0,0,127.8,64c0-10.65-8.88-19.42-19.07-20.19-.43,0-.85-.05-1.27-.05-1.82,0-3.57.25-5.34.25a12.57,12.57,0,0,1-3.35-.4,20.29,20.29,0,0,1-15-18.38c-.2-3.42.76-6.54-.15-9.94A20.27,20.27,0,0,0,64.07.27Z" transform="translate(0 -0.27)" fill="#b8b89f"/>
  </g>
  <g id="mark1">
    <path d="M64.93,43.81c-3.44-.26-6.53.72-10-.2A20.29,20.29,0,0,1,40,25.23c-.2-3.42.76-6.54-.14-9.94A20.28,20.28,0,0,0,0,20.55,20.31,20.31,0,0,0,7.83,36.26a21.28,21.28,0,0,0,8.09,4c3.28.8,6.25,0,9.52.09,4.75.08,9.64,2.74,12.89,6.09a20.68,20.68,0,0,1,4,5.84c2.88,6.47,2.84,17.65-.29,24.08A20.43,20.43,0,0,1,25,87.72c-5.75.33-12,0-16.87,3.52a20.28,20.28,0,0,0,12.19,36.49A20.3,20.3,0,0,0,36,119.81a21.08,21.08,0,0,0,4-8.15,19.49,19.49,0,0,0,.54-4.57c0-3.21-.68-6.21.32-9.36a19.33,19.33,0,0,1,4-7,21,21,0,0,1,14.19-7c3.35-.19,6.27.78,9.62-.06a20.12,20.12,0,0,0,8-4A20.4,20.4,0,0,0,84,64C84,53.35,75.12,44.58,64.93,43.81Z" transform="translate(0 -0.27)" fill="#52656b"/>
  </g>
</svg>
