<svg id="backed-logo" xmlns="http://www.w3.org/2000/svg" viewBox="0 0 127.8 127.53">
  <g id="mark2">
    <path d="M64.07,4.07A16.51,16.51,0,0,1,76.45,9.78a16.27,16.27,0,0,1,3.35,6.35,14.28,14.28,0,0,1,.13,4.75,32.5,32.5,0,0,0-.12,4.39,24.27,24.27,0,0,0,17.92,22,16.45,16.45,0,0,0,4.39.54c1,0,2-.07,2.92-.13s1.64-.12,2.42-.12c.34,0,.66,0,1,0,8.48.64,15.38,7.91,15.38,16.2a16.47,16.47,0,0,1-5.9,12.54,16.24,16.24,0,0,1-6.41,3.25,8.06,8.06,0,0,1-2.06.23c-.76,0-1.58-.07-2.44-.14s-2-.17-3.2-.17c-.4,0-.8,0-1.18,0a24.86,24.86,0,0,0-17,8.37,23.57,23.57,0,0,0-4.83,8.41,21.18,21.18,0,0,0-.62,8.1c.05.86.1,1.68.11,2.48a15.6,15.6,0,0,1-.43,3.64,17.36,17.36,0,0,1-3.22,6.6A16.15,16.15,0,1,1,54.22,94.29c3.2-2.29,7.51-2.47,12.08-2.65L69,91.51A24.54,24.54,0,0,0,87,81.8a24.9,24.9,0,0,0,4.29-9.49c1.34-5.9,1.24-15.57-1.57-21.88a24.37,24.37,0,0,0-4.73-7C80.72,39,74.7,36.22,69.3,36.13h-.4c-1.15,0-2.22.07-3.25.15s-1.77.13-2.58.13a9.73,9.73,0,0,1-2.41-.26,17.11,17.11,0,0,1-6.54-3.22A16.31,16.31,0,0,1,47.8,20.35,16.3,16.3,0,0,1,64.07,4.07m0-4A20.28,20.28,0,0,0,43.8,20.35a20.3,20.3,0,0,0,7.83,15.71,21.21,21.21,0,0,0,8.09,4,13.87,13.87,0,0,0,3.35.37c1.93,0,3.83-.28,5.83-.28h.34c4.75.08,9.64,2.74,12.88,6.1a20,20,0,0,1,3.95,5.84c2.3,5.15,2.57,13.87,1.33,19.36a20.8,20.8,0,0,1-3.6,8,20.39,20.39,0,0,1-15,8.12c-5.75.33-12,0-16.87,3.52a20.18,20.18,0,1,0,27.92,28.57,21.22,21.22,0,0,0,4-8.15,19.49,19.49,0,0,0,.54-4.57c0-3.21-.68-6.21.32-9.36a19.41,19.41,0,0,1,4-7,21,21,0,0,1,14.19-7c.32,0,.64,0,1,0,1.94,0,3.76.31,5.64.31a12.32,12.32,0,0,0,3-.35A20.26,20.26,0,0,0,127.8,63.8c0-10.65-8.88-19.41-19.07-20.19-.43,0-.85,0-1.27,0-1.82,0-3.57.25-5.34.25a12.57,12.57,0,0,1-3.35-.4A20.29,20.29,0,0,1,83.81,25c-.2-3.42.76-6.54-.15-9.93A20.26,20.26,0,0,0,64.07.07Z" fill="#b8b89f"/>
  </g>
  <g id="mark1">
    <path d="M64.93,43.53c-3.44-.26-6.53.73-10-.19A20.29,20.29,0,0,1,40,25c-.2-3.42.76-6.55-.14-9.94A20.28,20.28,0,0,0,0,20.28,20.31,20.31,0,0,0,7.83,36a21.11,21.11,0,0,0,8.09,4c3.28.8,6.25,0,9.52.1,4.75.07,9.64,2.74,12.89,6.09a20.54,20.54,0,0,1,4,5.84c2.88,6.47,2.84,17.65-.29,24.08A20.42,20.42,0,0,1,25,87.44c-5.75.34-12,0-16.87,3.53a20.28,20.28,0,0,0,12.19,36.48A20.32,20.32,0,0,0,36,119.54a21.22,21.22,0,0,0,4-8.15,19.56,19.56,0,0,0,.54-4.57c0-3.22-.68-6.21.32-9.36a19.45,19.45,0,0,1,4-7,21,21,0,0,1,14.19-7c3.35-.2,6.27.78,9.62-.06A20.29,20.29,0,0,0,84,63.73C84,53.07,75.12,44.31,64.93,43.53Z" fill="#52656b"/>
  </g>
</svg>
