<?xml version="1.0" standalone="no"?>
<!DOCTYPE svg PUBLIC "-//W3C//DTD SVG 20010904//EN"
 "http://www.w3.org/TR/2001/REC-SVG-20010904/DTD/svg10.dtd">
<svg version="1.0" xmlns="http://www.w3.org/2000/svg"
 width="700.000000pt" height="700.000000pt" viewBox="0 0 700.000000 700.000000"
 preserveAspectRatio="xMidYMid meet">
<metadata>
Created by potrace 1.14, written by Peter Selinger 2001-2017
</metadata>
<g transform="translate(0.000000,700.000000) scale(0.100000,-0.100000)"
fill="#000000" stroke="none">
<path d="M1028 6995 c-2 -2 -25 -5 -53 -8 -362 -38 -709 -289 -867 -627 -73
-156 -101 -279 -102 -450 -1 -174 13 -257 69 -406 116 -308 382 -560 710 -673
105 -36 206 -49 336 -42 52 2 162 4 244 4 134 0 160 -3 239 -27 180 -54 340
-151 481 -291 207 -205 309 -444 341 -795 19 -204 -14 -592 -57 -672 -5 -10
-7 -18 -5 -18 10 0 -45 -135 -84 -207 -102 -189 -266 -352 -460 -455 -76 -40
-215 -92 -280 -104 -25 -4 -47 -8 -50 -9 -26 -6 -148 -16 -245 -20 -182 -8
-338 -20 -385 -30 -3 -1 -25 -5 -50 -9 -66 -11 -196 -54 -254 -83 -172 -87
-356 -283 -443 -473 -82 -178 -108 -303 -107 -500 3 -289 115 -558 321 -765
264 -266 631 -380 989 -306 282 58 533 227 698 469 98 145 145 254 192 449 4
15 8 165 8 333 2 285 3 309 24 371 110 329 376 595 707 707 50 17 106 34 125
37 19 4 58 11 85 15 28 5 120 7 205 4 286 -10 305 -10 355 -1 28 4 89 22 136
38 324 110 589 380 693 704 45 141 56 220 51 380 -3 135 -19 221 -59 328 -141
374 -453 641 -850 728 -67 15 -121 19 -215 18 -387 -7 -410 -6 -505 25 -178
58 -312 141 -446 276 -135 135 -208 250 -269 422 -59 168 -66 263 -48 643 11
222 -126 524 -319 705 -122 115 -220 179 -363 236 -90 36 -88 36 -201 60 -61
13 -283 27 -292 19z"/>
<path d="M3405 6992 c-16 -1 -73 -11 -126 -22 -211 -44 -391 -142 -551 -301
-135 -134 -230 -293 -282 -472 -36 -123 -38 -140 -41 -290 -3 -146 10 -234 54
-364 114 -339 401 -615 756 -727 86 -27 165 -34 310 -29 243 9 346 7 423 -11
309 -70 594 -294 739 -581 52 -102 90 -222 109 -345 3 -19 7 -37 9 -40 8 -13
19 -200 19 -325 0 -185 -9 -272 -48 -454 -13 -57 -49 -152 -90 -233 -152 -299
-434 -514 -765 -583 -80 -17 -139 -22 -331 -30 -420 -17 -598 -68 -792 -225
-153 -123 -256 -265 -331 -455 -89 -228 -97 -444 -27 -725 16 -63 91 -219 145
-300 89 -134 238 -267 395 -353 70 -38 222 -94 279 -103 20 -3 56 -10 81 -14
67 -12 265 -9 347 5 422 75 769 395 894 825 11 36 22 85 25 110 3 25 8 53 10
63 5 29 5 120 0 327 -4 172 -2 204 15 270 25 95 103 256 166 340 173 234 456
407 737 450 76 11 236 14 306 5 62 -7 214 -8 260 -1 336 54 656 308 803 636
84 188 116 438 81 638 -39 220 -149 428 -316 594 -172 170 -374 276 -618 322
-72 14 -112 14 -435 3 -344 -12 -730 240 -903 588 -51 103 -78 179 -102 290
-16 75 -18 119 -14 265 2 96 5 198 7 225 10 170 -69 400 -196 575 -63 86 -194
210 -287 271 -137 90 -313 157 -458 175 -59 7 -209 11 -257 6z"/>
</g>
</svg>
